<svg xmlns="http://www.w3.org/2000/svg" xmlns:xlink="http://www.w3.org/1999/xlink" width="500" zoomAndPan="magnify" viewBox="0 0 375 374.999991" height="500" preserveAspectRatio="xMidYMid meet" version="1.2"><defs><clipPath id="553f449a1c"><path d="M 72 89.050781 L 303 89.050781 L 303 286 L 72 286 Z M 72 89.050781 "/></clipPath><clipPath id="92c884187b"><path d="M 290.335938 187.417969 L 295.484375 181.972656 C 304.703125 172.222656 304.703125 156.359375 295.484375 146.609375 L 248.285156 96.703125 C 243.710938 91.863281 237.605469 89.203125 231.085938 89.203125 C 224.570312 89.203125 218.460938 91.867188 213.890625 96.703125 L 209.222656 101.640625 L 204.550781 96.703125 C 199.980469 91.867188 193.871094 89.203125 187.355469 89.203125 C 180.835938 89.203125 174.730469 91.863281 170.15625 96.703125 L 165.480469 101.644531 L 160.800781 96.699219 C 156.226562 91.863281 150.121094 89.203125 143.605469 89.203125 C 143.601562 89.203125 143.601562 89.203125 143.601562 89.203125 C 137.085938 89.203125 130.976562 91.867188 126.402344 96.703125 L 79.21875 146.609375 C 70 156.359375 70.003906 172.222656 79.21875 181.972656 L 84.371094 187.417969 L 79.21875 192.867188 C 70 202.617188 70 218.476562 79.21875 228.230469 L 126.402344 278.132812 C 130.976562 282.972656 137.085938 285.636719 143.601562 285.636719 C 143.601562 285.636719 143.601562 285.636719 143.605469 285.636719 C 150.117188 285.636719 156.226562 282.976562 160.800781 278.140625 L 165.480469 273.191406 L 170.152344 278.136719 C 174.730469 282.972656 180.835938 285.636719 187.351562 285.636719 C 193.867188 285.636719 199.976562 282.972656 204.550781 278.136719 L 209.21875 273.199219 L 213.890625 278.136719 C 218.460938 282.972656 224.570312 285.636719 231.085938 285.636719 C 231.085938 285.636719 231.085938 285.636719 231.089844 285.636719 C 237.605469 285.636719 243.710938 282.972656 248.285156 278.136719 L 295.484375 228.230469 C 304.703125 218.480469 304.703125 202.617188 295.484375 192.867188 Z M 170.152344 249.980469 L 165.480469 254.921875 L 101.648438 187.417969 L 133.566406 153.667969 L 165.480469 119.917969 L 170.152344 124.859375 C 170.804688 125.546875 171.492188 126.175781 172.203125 126.777344 C 173.363281 127.753906 174.59375 128.625 175.886719 129.355469 C 175.890625 129.359375 175.894531 129.359375 175.898438 129.359375 C 177.285156 130.144531 178.742188 130.777344 180.253906 131.257812 C 180.269531 131.265625 180.292969 131.269531 180.308594 131.273438 C 181.804688 131.746094 183.347656 132.070312 184.925781 132.230469 C 185.332031 132.273438 185.742188 132.273438 186.152344 132.292969 C 186.550781 132.316406 186.945312 132.355469 187.347656 132.355469 C 187.347656 132.355469 187.351562 132.355469 187.351562 132.355469 C 188.980469 132.355469 190.582031 132.1875 192.144531 131.863281 C 196.824219 130.886719 201.117188 128.480469 204.546875 124.855469 L 208.863281 120.292969 L 209.21875 119.914062 L 273.054688 187.421875 L 209.222656 254.929688 L 204.546875 249.984375 C 199.976562 245.148438 193.867188 242.484375 187.351562 242.484375 C 187.351562 242.484375 187.351562 242.484375 187.347656 242.484375 C 180.835938 242.484375 174.726562 245.148438 170.152344 249.980469 Z M 223.011719 105.328125 C 225.1875 103.023438 228.058594 101.757812 231.089844 101.757812 C 234.121094 101.757812 236.988281 103.023438 239.167969 105.328125 L 286.363281 155.234375 C 291.085938 160.230469 291.085938 168.355469 286.363281 173.347656 L 281.695312 178.285156 L 217.859375 110.777344 Z M 179.277344 105.328125 C 181.453125 103.023438 184.324219 101.753906 187.355469 101.753906 C 190.382812 101.753906 193.253906 103.023438 195.433594 105.324219 L 200.582031 110.777344 L 195.429688 116.230469 C 194.066406 117.667969 192.4375 118.703125 190.664062 119.277344 C 189.601562 119.621094 188.488281 119.800781 187.351562 119.800781 C 184.320312 119.800781 181.453125 118.535156 179.277344 116.230469 L 174.121094 110.78125 Z M 88.34375 173.347656 C 83.621094 168.351562 83.621094 160.226562 88.339844 155.234375 L 135.527344 105.328125 C 137.703125 103.023438 140.570312 101.753906 143.601562 101.753906 C 146.632812 101.753906 149.5 103.023438 151.679688 105.324219 L 156.839844 110.78125 L 93.011719 178.28125 Z M 143.605469 273.085938 C 140.570312 273.085938 137.703125 271.816406 135.523438 269.511719 L 88.339844 219.605469 C 83.617188 214.609375 83.617188 206.484375 88.339844 201.492188 L 93.007812 196.554688 L 156.839844 264.058594 L 151.679688 269.515625 C 149.503906 271.816406 146.632812 273.085938 143.605469 273.085938 Z M 187.355469 273.085938 C 184.324219 273.085938 181.453125 271.816406 179.277344 269.511719 L 174.121094 264.058594 L 179.273438 258.605469 C 181.449219 256.304688 184.320312 255.035156 187.351562 255.035156 C 190.382812 255.035156 193.25 256.304688 195.429688 258.609375 L 200.585938 264.0625 L 195.433594 269.511719 C 193.253906 271.816406 190.382812 273.085938 187.355469 273.085938 Z M 286.363281 219.605469 L 239.164062 269.511719 C 236.988281 271.816406 234.117188 273.082031 231.085938 273.082031 C 228.058594 273.082031 225.1875 271.8125 223.011719 269.511719 L 217.859375 264.0625 L 281.695312 196.554688 L 286.363281 201.492188 C 291.085938 206.484375 291.085938 214.613281 286.363281 219.605469 Z M 286.363281 219.605469 "/></clipPath></defs><g id="f9493faa54"><g clip-rule="nonzero" clip-path="url(#553f449a1c)"><g clip-rule="nonzero" clip-path="url(#92c884187b)"><path style=" stroke:none;fill-rule:nonzero;fill:#ffffff;fill-opacity:1;" d="M 70.046875 89.203125 L 70.046875 285.636719 L 304.703125 285.636719 L 304.703125 89.203125 Z M 70.046875 89.203125 "/></g></g></g></svg>